<?xml version="1.0" standalone="no"?>
<!DOCTYPE svg PUBLIC "-//W3C//DTD SVG 20010904//EN"
 "http://www.w3.org/TR/2001/REC-SVG-20010904/DTD/svg10.dtd">
<svg version="1.0" xmlns="http://www.w3.org/2000/svg"
 width="500.000000pt" height="500.000000pt" viewBox="0 0 500.000000 500.000000"
 preserveAspectRatio="xMidYMid meet">
<metadata>
Created by potrace 1.16, written by Peter Selinger 2001-2019
</metadata>
<g transform="translate(0.000000,500.000000) scale(0.100000,-0.100000)"
fill="#000000" stroke="none">
<path d="M2305 4984 c-16 -2 -73 -9 -125 -15 -407 -46 -839 -220 -1175 -472
-548 -411 -889 -995 -987 -1687 -17 -121 -17 -526 0 -635 33 -205 98 -475 122
-499 6 -6 152 76 362 202 335 200 359 213 471 247 403 121 743 176 890 145 33
-6 115 -41 185 -77 191 -98 179 -95 422 -103 234 -8 280 -17 362 -69 64 -41
102 -99 102 -159 1 -45 -1 -48 -39 -67 -38 -19 -66 -20 -525 -25 l-484 -5 -16
-27 c-13 -25 -13 -31 0 -55 l16 -28 454 -3 c300 -2 477 1 520 8 78 14 150 51
173 90 33 56 17 180 -34 251 -12 17 -20 31 -18 33 19 14 799 268 836 273 64 7
115 -10 148 -48 34 -41 33 -87 -2 -121 -72 -68 -1294 -795 -1630 -969 -124
-65 -136 -69 -197 -69 -102 0 -383 64 -899 206 -108 30 -202 54 -207 54 -6 0
-10 -6 -10 -13 0 -7 -108 -100 -240 -207 -132 -107 -240 -197 -240 -200 0 -3
46 -57 103 -120 388 -432 912 -710 1507 -802 135 -21 587 -18 725 5 547 91
1001 322 1386 706 378 379 610 827 700 1356 27 153 37 503 20 667 -78 750
-488 1420 -1126 1838 -285 186 -644 321 -995 375 -100 15 -488 29 -555 19z
m56 -1079 c24 -9 65 -30 91 -47 44 -28 50 -29 66 -15 33 29 120 66 184 78 150
28 318 -45 409 -177 91 -133 94 -330 6 -459 -14 -20 -159 -172 -323 -336
l-298 -300 -254 253 c-391 389 -419 427 -430 585 -17 244 195 455 439 438 36
-3 86 -12 110 -20z"/>
</g>
</svg>
