


<?xml version="1.0" standalone="no"?>
<!DOCTYPE svg >

<svg width="289.38957311113177" height="304.915625" viewBox="0 0 199.99999999999997 210.7302082255091" class="css-1j8o68f"><defs id="SvgjsDefs1698"></defs><g id="SvgjsG1699" featurekey="JjiT9w-0" transform="matrix(0.8,0,0,0.8,60,0)" fill="#111111"><g xmlns="http://www.w3.org/2000/svg"><path fill="#111111" d="M100,27.409c0-15.137-12.27-27.408-27.407-27.408c-8.719,0-16.475,4.081-21.492,10.427l-0.149,0.066   c-4.648-4.629-9.905-7.342-14.711-8.941c0.022-0.013,0.041-0.032,0.063-0.045C33.514,0.544,30.53,0,27.41,0   C12.272,0.001,0,12.271,0,27.409c0,2.792,0.425,5.484,1.2,8.023c0.005-0.007,0.013-0.014,0.021-0.021   c2.174,7.8,6.641,12.696,8.036,13.901l5.923,5.662l0.353,0.342l-0.368,0.377c-1.78,1.82-1.741,4.739,0.08,6.515   c1.82,1.777,4.736,1.742,6.515-0.077l0.383-0.38c0.043-0.037,0.096-0.061,0.156-0.061c0.14,0,0.251,0.11,0.251,0.252   c0,0.058-0.023,0.107-0.057,0.151l0.005,0.004l-0.366,0.376c-1.781,1.82-1.742,4.739,0.079,6.513   c1.821,1.78,4.737,1.746,6.516-0.078l0.36-0.354c0.045-0.054,0.112-0.09,0.188-0.09c0.141,0,0.252,0.11,0.252,0.251   c0,0.061-0.024,0.115-0.062,0.158l0.001,0.002l-0.006,0.006c-0.005,0.005-0.009,0.013-0.015,0.017l-0.347,0.354   c-1.78,1.819-1.742,4.738,0.079,6.514c1.822,1.778,4.738,1.744,6.516-0.076l0.376-0.387l0.007,0.008   c0.043-0.033,0.095-0.057,0.152-0.057c0.14,0,0.252,0.111,0.252,0.252c0,0.056-0.022,0.104-0.054,0.146l0.003,0.003l-0.02,0.021   c-0.003,0.004-0.006,0.006-0.009,0.011l-0.338,0.347c-1.78,1.82-1.742,4.738,0.079,6.515c1.821,1.778,4.739,1.743,6.516-0.079   l0.434-0.444l-0.123,0.159l6.126,5.832c1.65,1.568,3.807,2.432,6.077,2.432h0.117c2.4-0.033,4.633-1.009,6.287-2.747   c1.604-1.689,2.463-3.989,2.387-6.361c0.096,0.004,0.197,0.008,0.318,0.004c2.395-0.028,4.623-1.003,6.277-2.741   c1.598-1.681,2.444-3.875,2.402-6.22c0.106,0.003,0.241,0.007,0.36,0.007c2.397-0.032,4.63-1.007,6.284-2.745   c1.607-1.691,2.466-3.989,2.389-6.362c0.096,0.004,0.228,0.009,0.316,0.006c2.397-0.031,4.627-1.007,6.279-2.745   c3.038-3.186,3.198-8.074,0.584-11.469C95.552,44.055,100,36.147,100,27.409z M85.017,57.148c-0.708,0.744-1.739,1.17-2.832,1.17   c-1.027,0-1.979-0.367-2.677-1.032l-6.464-6.036c-0.41-0.302-0.914-0.486-1.464-0.486c-1.371,0-2.484,1.115-2.484,2.488   c0,0.792,0.379,1.493,0.961,1.948l5.836,5.534c1.556,1.483,1.619,3.955,0.139,5.511c-0.708,0.747-1.74,1.174-2.833,1.174   c-1.025,0-1.977-0.366-2.676-1.033l-6.239-5.992l-0.003,0.006c-0.444-0.405-1.03-0.661-1.678-0.661   c-1.371,0-2.485,1.115-2.485,2.49c0,0.662,0.264,1.261,0.688,1.709l-0.007,0.006l6.059,5.761c1.54,1.483,1.597,3.953,0.128,5.502   c-0.708,0.742-1.739,1.169-2.833,1.169c-1.028,0-1.978-0.367-2.675-1.031l-6.159-5.813l-0.004,0.005   c-0.449-0.458-1.075-0.743-1.767-0.743c-1.373,0-2.485,1.114-2.485,2.489c0,0.726,0.316,1.369,0.811,1.825l5.987,5.687   c1.555,1.483,1.618,3.957,0.14,5.513c-0.707,0.744-1.74,1.172-2.833,1.172c-1.028,0-1.977-0.365-2.676-1.033l-6.098-5.803   l0.365-0.372c1.78-1.822,1.741-4.742-0.081-6.519c-1.82-1.778-4.735-1.742-6.517,0.077l-0.209,0.213l-0.006-0.008   c-0.046,0.052-0.111,0.085-0.188,0.085c-0.138,0-0.248-0.111-0.248-0.249c0-0.08,0.037-0.148,0.094-0.194l0.187-0.188   c1.78-1.822,1.741-4.741-0.08-6.517c-1.82-1.781-4.737-1.743-6.518,0.079l-0.218,0.223l-0.005-0.004   c-0.043,0.032-0.095,0.058-0.153,0.058c-0.138,0-0.25-0.112-0.25-0.251c0-0.057,0.021-0.106,0.054-0.148l-0.004-0.004l0.021-0.021   c0.003-0.004,0.005-0.008,0.008-0.01l0.181-0.186c1.779-1.823,1.742-4.74-0.081-6.519c-1.821-1.777-4.735-1.741-6.518,0.078   l-0.237,0.228c-0.045,0.061-0.114,0.103-0.196,0.103c-0.138,0-0.25-0.114-0.25-0.251c0-0.079,0.039-0.147,0.096-0.191l0,0   l0.22-0.227c1.777-1.822,1.741-4.74-0.082-6.519c-1.82-1.778-4.735-1.74-6.517,0.08l-0.238,0.242l-6.413-6.214   c-0.063-0.055-4.772-4.194-6.957-13.186c0.017-0.006,0.033-0.015,0.05-0.021c-0.357-1.58-0.563-3.217-0.563-4.903   c0-12.276,9.986-22.262,22.264-22.262c1.827,0,3.596,0.246,5.297,0.665c0.001-0.002,0.001-0.004,0.002-0.005   c4.359,1.198,9.336,3.391,13.742,7.416L23.783,35.663v0.001c-0.92,0.866-1.503,2.087-1.503,3.45c0,2.625,2.127,4.751,4.749,4.751   c0.133,0,0.258-0.029,0.39-0.041c0.003,0.009,0.007,0.014,0.011,0.021c0.102-0.012,0.205-0.036,0.309-0.052   c0.125-0.02,0.246-0.039,0.369-0.062c3.771-0.747,10.885-8.319,17.36-12.373c3.652-2.253,5.83-2.966,9.836-2.966   c3.338,0,6.372,1.265,8.676,3.33c0.276,0.205,0.566,0.455,0.89,0.774l13.856,13.304l-0.004,0.012l6.024,5.769   C86.306,53.063,86.495,55.594,85.017,57.148z" class="__web-inspector-hide-shortcut__"></path></g></g><g id="SvgjsG1700" featurekey="j7RXiA-0" transform="matrix(5.1840329317717,0,0,5.1840329317717,-1.3478472768520857,68.77552247902707)" fill="#111111"><path d="M4.22 20 q-1 -2.06 -2.05 -4.73 t-1.91 -5.73 l2.58 0 q0.22 0.88 0.51 1.89 t0.62 2.02 t0.68 1.96 t0.65 1.71 q0.3 -0.76 0.64 -1.71 t0.67 -1.96 t0.63 -2.02 t0.52 -1.89 l2.5 0 q-0.86 3.06 -1.91 5.73 t-2.05 4.73 l-2.08 0 z M11.48 14.82 q0 -1.38 0.41 -2.42 t1.09 -1.73 t1.56 -1.04 t1.8 -0.35 q2.16 0 3.37 1.34 t1.21 4 q0 0.2 -0.01 0.45 t-0.03 0.45 l-6.9 0 q0.1 1.26 0.89 1.95 t2.29 0.69 q0.88 0 1.61 -0.16 t1.15 -0.34 l0.32 1.98 q-0.2 0.1 -0.55 0.21 t-0.8 0.2 t-0.97 0.15 t-1.06 0.06 q-1.38 0 -2.4 -0.41 t-1.68 -1.14 t-0.98 -1.72 t-0.32 -2.17 z M18.5 13.74 q0 -0.5 -0.14 -0.95 t-0.41 -0.78 t-0.66 -0.52 t-0.93 -0.19 q-0.56 0 -0.98 0.21 t-0.71 0.55 t-0.45 0.78 t-0.22 0.9 l4.5 0 z M27.119999999999997 20.2 q-1.08 -0.02 -1.79 -0.24 t-1.13 -0.63 t-0.59 -1.02 t-0.17 -1.39 l0 -12.04 l2.42 -0.4 l0 11.98 q0 0.44 0.07 0.74 t0.25 0.51 t0.49 0.32 t0.79 0.17 z M36.36 14.82 q0 -1.62 -0.73 -2.52 t-2.35 -0.9 q-0.34 0 -0.71 0.03 t-0.73 0.13 l0 5.98 q0.32 0.22 0.85 0.41 t1.13 0.19 q1.32 0 1.93 -0.9 t0.61 -2.42 z M38.84 14.780000000000001 q0 1.2 -0.31 2.2 t-0.89 1.72 t-1.45 1.12 t-1.97 0.4 q-0.74 0 -1.36 -0.18 t-1.02 -0.4 l0 4.06 l-2.42 0 l0 -13.82 q0.74 -0.2 1.82 -0.38 t2.28 -0.18 q1.24 0 2.22 0.38 t1.67 1.09 t1.06 1.72 t0.37 2.27 z"></path></g><g id="SvgjsG1701" featurekey="XxmBkf-0" transform="matrix(0.5866996410676768,0,0,0.5866996410676768,18.861802592817437,198.78500317527815)" fill="#111111"><path d="M3.26 5.84 l0 6.24 l7.92 0 l0 -6.24 l1.32 0 l0 14.16 l-1.32 0 l0 -6.72 l-7.92 0 l0 6.72 l-1.32 0 l0 -14.16 l1.32 0 z M28.595999999999997 5.84 l0 1.2 l-7.34 0 l0 5.04 l6.88 0 l0 1.2 l-6.88 0 l0 5.52 l7.66 0 l0 1.2 l-8.98 0 l0 -14.16 l8.66 0 z M36.672 5.84 l0 12.96 l6.6 0 l0 1.2 l-7.92 0 l0 -14.16 l1.32 0 z M53.288000000000004 12.08 q1.28 0 2.1 -0.63 t0.84 -1.87 q0 -1.16 -0.82 -1.85 t-2.18 -0.69 l-3 0 l0 5.04 l3.06 0 z M52.94800000000001 5.84 q2.16 0 3.36 0.96 t1.24 2.78 q0 1.7 -1.16 2.69 t-3.02 1.01 l-3.14 0 l0 6.72 l-1.32 0 l0 -14.16 l4.04 0 z M65.26400000000001 5.84 l0 14.16 l-1.32 0 l0 -14.16 l1.32 0 z M74.4 5.84 l8.62 12.4 l0.04 0 l0 -12.4 l1.32 0 l0 14.16 l-1.7 0 l-8.62 -12.4 l-0.04 0 l0 12.4 l-1.32 0 l0 -14.16 l1.7 0 z M98.21600000000001 5.48 q3.2 -0.02 5.1 1.96 l-0.96 1 q-0.6 -0.74 -1.77 -1.25 t-2.37 -0.51 q-2.66 0 -4.32 1.76 t-1.68 4.48 q0 2.7 1.64 4.44 t4.38 1.8 q2.6 0 3.94 -0.84 l0 -4.76 l-3.4 0 l0 -1.2 l4.72 0 l0 6.72 q-2.3 1.28 -5.28 1.28 q-3.2 0 -5.23 -2.09 t-2.09 -5.35 q0.02 -3.28 2.06 -5.34 t5.26 -2.1 z M119.108 5.84 l4.56 12.42 l4.6 -12.42 l1.4 0 l-5.38 14.16 l-1.32 0 l-5.28 -14.16 l1.42 0 z M135.50400000000002 12.92 q0 2.7 1.66 4.45 t4.34 1.79 q2.7 0 4.34 -1.77 t1.66 -4.47 q0 -2.74 -1.64 -4.47 t-4.38 -1.77 q-2.68 0 -4.32 1.76 t-1.66 4.48 z M141.50400000000002 5.48 q2.16 0 3.82 0.95 t2.57 2.66 t0.93 3.83 q0 3.26 -2.06 5.33 t-5.26 2.11 q-3.22 0 -5.24 -2.09 t-2.08 -5.35 q0.02 -3.26 2.04 -5.32 t5.28 -2.12 z M156.66 5.84 l0 12.96 l6.6 0 l0 1.2 l-7.92 0 l0 -14.16 l1.32 0 z M169.95600000000002 5.84 l0 8.5 q0 2.3 0.95 3.54 t2.89 1.28 q3.8 0 3.84 -5.02 l0 -8.3 l1.32 0 l0 8.64 q0 2.78 -1.3 4.32 t-3.86 1.56 q-2.52 0 -3.83 -1.53 t-1.33 -4.25 l0 -8.74 l1.32 0 z M187.832 5.84 l8.62 12.4 l0.04 0 l0 -12.4 l1.32 0 l0 14.16 l-1.7 0 l-8.62 -12.4 l-0.04 0 l0 12.4 l-1.32 0 l0 -14.16 l1.7 0 z M214.548 5.84 l0 1.2 l-4.84 0 l0 12.96 l-1.32 0 l0 -12.96 l-4.84 0 l0 -1.2 l11 0 z M228.944 5.84 l0 1.2 l-7.34 0 l0 5.04 l6.88 0 l0 1.2 l-6.88 0 l0 5.52 l7.66 0 l0 1.2 l-8.98 0 l0 -14.16 l8.66 0 z M244.35999999999999 5.84 l0 1.2 l-7.34 0 l0 5.04 l6.88 0 l0 1.2 l-6.88 0 l0 5.52 l7.66 0 l0 1.2 l-8.98 0 l0 -14.16 l8.66 0 z M255.33599999999998 12.08 q1.54 0 2.38 -0.69 t0.84 -1.83 t-0.82 -1.82 t-2.44 -0.7 l-2.86 0 l0 5.04 l2.9 0 z M254.93599999999998 5.84 q4.9 0 4.94 3.72 q0 3.14 -3.62 3.64 l4.12 6.8 l-1.5 0 l-3.98 -6.72 l-2.46 0 l0 6.72 l-1.32 0 l0 -14.16 l3.82 0 z M270.572 5.48 q2.46 0 3.86 1.78 l-1.14 0.82 q-1.04 -1.4 -2.76 -1.4 q-1.4 0 -2.27 0.72 t-0.91 1.96 q0 1.08 0.66 1.75 t2.3 1.13 q2.16 0.64 2.88 1.13 t1.09 1.21 t0.37 1.8 q0 1.72 -1.23 2.83 t-3.17 1.15 q-3.06 0 -4.6 -2.14 l1.26 -0.84 q1.06 1.76 3.24 1.78 q1.42 0 2.3 -0.79 t0.88 -1.99 q0 -0.7 -0.25 -1.15 t-0.76 -0.78 t-1.3 -0.6 t-1.85 -0.63 q-1.6 -0.52 -2.37 -1.46 t-0.77 -2.4 q0 -1.72 1.29 -2.8 t3.25 -1.08 z"></path></g></svg>
