<svg xmlns="http://www.w3.org/2000/svg" viewBox="0 0 228.19 195.84"><defs><style>.cls-1{fill:#fff;}.cls-1,.cls-2{stroke:#1d1d1b;stroke-miterlimit:10;}.cls-2{fill:none;}</style></defs><g id="Layer_2" data-name="Layer 2"><g id="Layer_1-2" data-name="Layer 1"><path class="cls-1" d="M112.83,23.47c13.54-16.63,39-27.09,64.59-21.41,34.22,7.61,56.11,39.23,48.89,70.62-5.32,23.18-25.88,35.52-28.86,37.15L168,137.57"/><path class="cls-1" d="M109.64,26a37.47,37.47,0,0,0-7.45-7.91A61,61,0,0,0,81.72,6.63c-1.45-.48-2.51-.78-3-.93-32.92-9.8-67,6.42-76.1,36.24-7.1,23.22,4.87,48.12,22.59,61.54"/><path class="cls-1" d="M24.72,103.18l21.36,22.54"/><line class="cls-2" x1="64.9" y1="70.26" x2="112.83" y2="23.47"/><path class="cls-2" d="M120.09,55.42C112,46,79.5,80.72,79.5,80.72"/><path class="cls-2" d="M64.9,70.26c-3.24,3.34-4.48,7.31-3.08,9.69.91,1.55,2.82,2.23,4.49,2.82a13.57,13.57,0,0,0,6.24.65,16,16,0,0,0,7-2.7"/><path class="cls-2" d="M80.93,176.1c-.38,3,1.4,6.89,4.5,10,2.94,2.92,6.59,4.6,9.39,4.31L120.4,165.5c.94-2.47-.09-6.09-2.58-9.15-3.1-3.81-8-6.14-11.31-5.13Z"/><path class="cls-2" d="M92,165.19l13.74-13.37c.93-2.47-.09-6.09-2.58-9.15-3.11-3.81-8-6.14-11.32-5.13L66.22,162.42c-.37,3,1.41,6.89,4.51,10,2.94,2.92,6.59,4.6,9.39,4.31L92,165.19"/><path class="cls-2" d="M52.24,148c-.38,3,1.4,6.89,4.5,10,2.94,2.92,6.59,4.6,9.39,4.31l25.58-24.88c.94-2.47-.09-6.09-2.58-9.15-3.1-3.81-8-6.14-11.31-5.13Z"/><path class="cls-2" d="M38,134c-.38,2.95,1.4,6.89,4.5,10,2.94,2.92,6.59,4.6,9.39,4.31l25.58-24.88c.93-2.47-.09-6.09-2.58-9.15-3.1-3.81-8-6.14-11.31-5.13Z"/><path class="cls-2" d="M104.73,58.57c-2.62,1.56,2.38,10,18,27.49,5.08,5.71,9.87,15.77,21.11,26.55,10.31,9.91,20.4,20.66,25.65,26.53"/><path class="cls-2" d="M152.57,150.22l2.57,2.62c3.56,1,7.88-.38,10.94-3.46,2.9-2.91,4.21-6.89,3.36-10.24"/><path class="cls-2" d="M117.2,142.64c6.33,6.43,18.18,18.54,24.51,25,3.55,1,7.87-.39,10.93-3.46s4.21-6.9,3.36-10.25l-23.42-23.79"/><path class="cls-2" d="M116,169.85l11.37,11.55c3.55,1,7.87-.39,10.93-3.46,2.91-2.92,4.21-6.9,3.36-10.24"/><path class="cls-2" d="M101.54,183.47,112.9,195c3.56,1,7.87-.38,10.94-3.45,2.9-2.92,4.2-6.9,3.35-10.25"/></g></g></svg>